<svg xmlns="http://www.w3.org/2000/svg" xmlns:xlink="http://www.w3.org/1999/xlink" x="0" y="0" width="661.5999755859375" height="176.5333251953125" style="
        width:661.5999755859375px;
        height:176.5333251953125px;
        background: transparent;
        fill: none;
">
        
        
        <svg xmlns="http://www.w3.org/2000/svg" class="role-diagram-draw-area"><g class="shapes-region" style="stroke: black; fill: none;"><g class="arrow-line"><path class="connection real" stroke-dasharray="" d="  M120.6,68.4 L579.4,66.81" style="stroke: rgb(74, 144, 226); stroke-opacity: 1; stroke-width: 1px; fill: none; fill-opacity: 1;"/><g stroke="rgb(74,144,226)" stroke-opacity="1" transform="matrix(-0.9999939076577904,0.0034906514152238826,-0.0034906514152238826,-0.9999939076577904,581.3999938964843,66.8000030517578)" style="stroke: rgb(74, 144, 226); stroke-width: 1px;"><path d=" M10.93,-3.29 Q4.96,-0.45 0,0 Q4.96,0.45 10.93,3.29"/></g></g><g class="composite-shape"><path class="real" d=" M100,67.4 C100,35.04 111.46,8.8 125.6,8.8 C139.74,8.8 151.2,35.04 151.2,67.4 C151.2,99.76 139.74,126 125.6,126 C111.46,126 100,99.76 100,67.4 Z" style="stroke-width: 1px; stroke: rgb(0, 0, 0); fill: none; fill-opacity: 1; stroke-dasharray: 6px, 6px;"/></g><g class="composite-shape"><path class="real" d=" M509,68.4 C509,36.04 520.46,9.8 534.6,9.8 C548.74,9.8 560.2,36.04 560.2,68.4 C560.2,100.76 548.74,127 534.6,127 C520.46,127 509,100.76 509,68.4 Z" style="stroke-width: 1px; stroke: rgb(0, 0, 0); fill: rgb(155, 155, 155); fill-opacity: 0.31; stroke-dasharray: 6px, 6px;"/></g><g class="arrow-line"><path class="connection real" stroke-dasharray="6 6" d="  M125.6,8.8 L534.6,9.8" style="stroke: rgb(0, 0, 0); stroke-width: 1px; fill: none; fill-opacity: 1;"/></g><g class="arrow-line"><path class="connection real" stroke-dasharray="6 6" d="  M125.6,126 L534.6,127" style="stroke: rgb(0, 0, 0); stroke-width: 1px; fill: none; fill-opacity: 1;"/></g><g class="composite-shape"><path class="real" d=" M111.2,68.2 C111.2,54.81 117.49,43.95 125.25,43.95 C133.01,43.95 139.3,54.81 139.3,68.2 C139.3,81.59 133.01,92.45 125.25,92.45 C117.49,92.45 111.2,81.59 111.2,68.2 Z" style="stroke-width: 1px; stroke: rgb(0, 0, 0); fill: rgb(155, 155, 155); fill-opacity: 1;"/></g><g class="arrow-line"><path class="connection real" stroke-dasharray="6 6" d="  M139.3,68.2 L162.4,67.83" style="stroke: rgb(0, 0, 0); stroke-width: 1px; fill: none; fill-opacity: 1;"/><g stroke="#000" transform="matrix(-0.9998738758086451,0.01588182846520619,-0.01588182846520619,-0.9998738758086451,164.39999389648438,67.8000030517578)" style="stroke: rgb(0, 0, 0); stroke-width: 1px;"><path d=" M10.93,-3.29 Q4.96,-0.45 0,0 Q4.96,0.45 10.93,3.29"/></g></g><g class="arrow-line"><path class="connection real" stroke-dasharray="" d="  M120.6,68.4 L120.4,164.8" style="stroke: rgb(74, 144, 226); stroke-opacity: 1; stroke-width: 1px; fill: none; fill-opacity: 1;"/><g stroke="rgb(74,144,226)" stroke-opacity="1" transform="matrix(0.0020943935712190603,-0.9999978067553793,0.9999978067553793,0.0020943935712190603,120.39999389648438,166.80000305175778)" style="stroke: rgb(74, 144, 226); stroke-width: 1px;"><path d=" M10.93,-3.29 Q4.96,-0.45 0,0 Q4.96,0.45 10.93,3.29"/></g></g><g class="arrow-line"><path class="connection real" stroke-dasharray="" d="  M376,145 C354.16,140.32 352.66,155.41 349.27,131.89" style="stroke: rgb(0, 0, 0); stroke-width: 1px; fill: none; fill-opacity: 1;"/><g stroke="#000" transform="matrix(0.13606140039648149,0.9907004064408919,-0.9907004064408919,0.13606140039648149,349,130)" style="stroke: rgb(0, 0, 0); stroke-width: 1px;"><path d=" M10.93,-3.29 Q4.96,-0.45 0,0 Q4.96,0.45 10.93,3.29"/></g></g><g class="composite-shape"><path class="real" d=" M107,68.6 C107,55.21 113.29,44.35 121.05,44.35 C128.81,44.35 135.1,55.21 135.1,68.6 C135.1,81.99 128.81,92.85 121.05,92.85 C113.29,92.85 107,81.99 107,68.6 Z" style="stroke-width: 1px; stroke: rgb(0, 0, 0); fill: rgb(155, 155, 155); fill-opacity: 1;"/></g><g class="arrow-line"><path class="connection real" stroke-dasharray="6 6" d="  M120.6,68.4 L95.4,68.77" style="stroke: rgb(0, 0, 0); stroke-width: 1px; fill: none; fill-opacity: 1;"/><g stroke="#000" transform="matrix(0.9998925328992174,-0.014660240529660886,0.014660240529660886,0.9998925328992174,93.39999389648438,68.80000305175781)" style="stroke: rgb(0, 0, 0); stroke-width: 1px;"><path d=" M10.93,-3.29 Q4.96,-0.45 0,0 Q4.96,0.45 10.93,3.29"/></g></g><g class="arrow-line"><path class="connection real" stroke-dasharray="" d="  M121.05,68.6 L113.87,53.8" style="stroke: rgb(0, 0, 0); stroke-width: 1px; fill: none; fill-opacity: 1;"/><g stroke="#000" transform="matrix(0.4363307211617389,0.8997863645168651,-0.8997863645168651,0.4363307211617389,113,52)" style="stroke: rgb(0, 0, 0); stroke-width: 1px;"><path d=" M10.93,-3.29 Q4.96,-0.45 0,0 Q4.96,0.45 10.93,3.29"/></g></g><g class="arrow-line"><path class="connection real" stroke-dasharray="" d="  M121.05,68.6 L144.68,95.5" style="stroke: rgb(0, 0, 0); stroke-width: 1px; fill: none; fill-opacity: 1;"/><g stroke="#000" transform="matrix(-0.6600016679609368,-0.7512641335035111,0.7512641335035111,-0.6600016679609368,146,97.00000000000003)" style="stroke: rgb(0, 0, 0); stroke-width: 1px;"><path d=" M10.93,-3.29 Q4.96,-0.45 0,0 Q4.96,0.45 10.93,3.29"/></g></g><g/></g><g/><g/><g/></svg>
        <svg xmlns="http://www.w3.org/2000/svg" xmlns:xlink="http://www.w3.org/1999/xlink" width="660" height="174.93333435058594" style="width:660px;height:174.93333435058594px;font-family:Asana-Math, Asana;background:transparent;"><g><g><g><g transform="matrix(1,0,0,1,127.80000305175781,151)"><path transform="matrix(0.017,0,0,-0.017,0,0)" d="M368 365C371 403 376 435 384 476C373 481 369 482 364 482C333 482 302 458 266 407C227 351 188 291 172 256L204 408C208 425 210 438 210 450C210 470 202 482 187 482C166 482 128 461 54 408L26 388L33 368L65 389C93 407 104 412 113 412C123 412 130 403 130 390C130 332 87 126 47 -2L57 -9C72 -4 88 -1 111 4L124 6L150 126C168 209 191 262 235 319C269 363 296 384 318 384C333 384 343 379 354 365Z" stroke="rgb(74,144,226)" stroke-opacity="1" stroke-width="8" fill="rgb(74,144,226)" fill-opacity="1"></path></g></g></g></g><g><g><g><g transform="matrix(1,0,0,1,585.8000030517578,57.600006103515625)"><path transform="matrix(0.017,0,0,-0.017,0,0)" d="M322 -11C334 -11 343 -9 372 -1C383 61 391 95 402 142L380 142L358 82C352 64 340 57 319 57C307 57 291 59 270 64L252 68C219 75 185 80 166 80C134 80 107 74 71 59L410 441L416 473L407 482L384 459C374 449 364 445 350 445C316 445 264 453 216 466L198 471C170 478 150 482 136 482C119 482 99 479 75 472L43 350L64 350L94 408C111 412 120 413 133 413C174 413 206 398 259 398C295 398 319 404 352 421L-1 21L8 -6C37 17 64 26 99 26C162 26 253 -11 322 -11Z" stroke="rgb(74,144,226)" stroke-opacity="1" stroke-width="8" fill="rgb(74,144,226)" fill-opacity="1"></path></g></g></g></g><g><g><g><g transform="matrix(1,0,0,1,161.8000030517578,56.600006103515625)"><path transform="matrix(0.017,0,0,-0.017,0,0)" d="M492 473L485 482L417 465L407 414C392 336 367 268 336 221C277 130 199 59 159 59C151 59 146 68 146 85C146 99 148 112 153 137L210 408C213 424 215 438 215 451C215 470 206 482 192 482C172 482 134 461 60 408L32 388L39 368L71 389C99 407 110 412 119 412C128 412 136 403 136 392C136 388 135 378 134 374L71 77C69 68 67 44 67 30C67 7 82 -11 102 -11C165 -11 286 101 370 239L333 97C326 73 322 46 322 31C322 6 333 -9 352 -9C378 -9 414 12 512 85L502 103L476 86C452 70 426 59 415 59C407 59 402 66 402 76C402 112 477 416 492 473Z" stroke="rgb(0,0,0)" stroke-opacity="1" stroke-width="8" fill="rgb(0,0,0)" fill-opacity="1"></path></g></g><g><g><g><g><g transform="matrix(1,0,0,1,172.2333526611328,49.70000305175781)"><path transform="matrix(0.0119,0,0,-0.0119,0,0)" d="M146 266C146 526 243 632 301 700L282 726C225 675 60 542 60 266C60 159 85 58 133 -32C168 -99 200 -138 282 -215L301 -194C255 -137 146 -15 146 266Z" stroke="rgb(0,0,0)" stroke-opacity="1" stroke-width="8" fill="rgb(0,0,0)" fill-opacity="1"></path></g></g><g><g transform="matrix(1,0,0,1,176.18333435058594,49.65)"><path transform="matrix(0.0119,0,0,-0.0119,0,0)" d="M322 -11C334 -11 343 -9 372 -1C383 61 391 95 402 142L380 142L358 82C352 64 340 57 319 57C307 57 291 59 270 64L252 68C219 75 185 80 166 80C134 80 107 74 71 59L410 441L416 473L407 482L384 459C374 449 364 445 350 445C316 445 264 453 216 466L198 471C170 478 150 482 136 482C119 482 99 479 75 472L43 350L64 350L94 408C111 412 120 413 133 413C174 413 206 398 259 398C295 398 319 404 352 421L-1 21L8 -6C37 17 64 26 99 26C162 26 253 -11 322 -11Z" stroke="rgb(0,0,0)" stroke-opacity="1" stroke-width="8" fill="rgb(0,0,0)" fill-opacity="1"></path></g></g><g><g transform="matrix(1,0,0,1,181.4499969482422,49.70000305175781)"><path transform="matrix(0.0119,0,0,-0.0119,0,0)" d="M51 726L32 700C87 636 187 526 187 266C187 -10 83 -131 32 -194L51 -215C104 -165 273 -23 273 265C273 542 108 675 51 726Z" stroke="rgb(0,0,0)" stroke-opacity="1" stroke-width="8" fill="rgb(0,0,0)" fill-opacity="1"></path></g></g></g></g></g><g><g transform="matrix(1,0,0,1,191.5166778564453,56.600006103515625)"><path transform="matrix(0.017,0,0,-0.017,0,0)" d="M604 347L604 406L65 406L65 347ZM604 134L604 193L65 193L65 134Z" stroke="rgb(0,0,0)" stroke-opacity="1" stroke-width="8" fill="rgb(0,0,0)" fill-opacity="1"></path></g></g><g><g transform="matrix(1,0,0,1,207.96669006347656,56.600006103515625)"><path transform="matrix(0.017,0,0,-0.017,0,0)" d="M492 473L485 482L417 465L407 414C392 336 367 268 336 221C277 130 199 59 159 59C151 59 146 68 146 85C146 99 148 112 153 137L210 408C213 424 215 438 215 451C215 470 206 482 192 482C172 482 134 461 60 408L32 388L39 368L71 389C99 407 110 412 119 412C128 412 136 403 136 392C136 388 135 378 134 374L71 77C69 68 67 44 67 30C67 7 82 -11 102 -11C165 -11 286 101 370 239L333 97C326 73 322 46 322 31C322 6 333 -9 352 -9C378 -9 414 12 512 85L502 103L476 86C452 70 426 59 415 59C407 59 402 66 402 76C402 112 477 416 492 473Z" stroke="rgb(0,0,0)" stroke-opacity="1" stroke-width="8" fill="rgb(0,0,0)" fill-opacity="1"></path></g></g><g><g><g><g><g transform="matrix(1,0,0,1,217.9166717529297,59.4)"><path transform="matrix(0.0119,0,0,-0.0119,0,0)" d="M263 689C108 689 29 566 29 324C29 207 50 106 85 57C120 8 176 -20 238 -20C389 -20 465 110 465 366C465 585 400 689 263 689ZM245 654C342 654 381 556 381 316C381 103 343 15 251 15C154 15 113 116 113 360C113 571 150 654 245 654Z" stroke="rgb(0,0,0)" stroke-opacity="1" stroke-width="8" fill="rgb(0,0,0)" fill-opacity="1"></path></g></g></g></g></g></g></g><g><g><g><g transform="matrix(1,0,0,1,382.8000030517578,149)"><path transform="matrix(0.017,0,0,-0.017,0,0)" d="M91 666C135 691 168 702 202 704C303 709 366 618 375 455C377 426 375 403 373 353C306 400 270 414 219 411C170 408 130 388 96 347C54 299 33 235 36 173C42 65 129 -16 233 -11C302 -7 359 29 398 92C440 162 466 297 460 413C450 613 327 758 175 750C136 748 102 738 48 715ZM369 318C359 206 351 163 328 111C305 57 263 21 219 19C165 16 128 67 124 152C118 266 180 364 261 368C299 371 331 354 369 318ZM670 -11C726 -11 841 62 884 125C925 186 959 296 959 371C959 438 936 482 900 482C858 482 805 456 753 409C712 374 692 348 656 289L680 408C683 425 685 440 685 452C685 471 677 482 663 482C642 482 604 461 530 408L502 388L509 368L541 389C569 407 580 412 589 412C599 412 606 403 606 389C606 381 604 361 602 351L544 8C534 -52 515 -143 495 -233L487 -270L494 -276C515 -269 535 -264 567 -259L609 3C630 -4 652 -11 670 -11ZM637 165C659 293 766 424 849 424C875 424 887 402 887 356C887 275 847 156 794 80C774 51 742 36 701 36C670 36 645 43 619 59Z" stroke="rgb(0,0,0)" stroke-opacity="1" stroke-width="8" fill="rgb(0,0,0)" fill-opacity="1"></path></g></g><g><g transform="matrix(1,0,0,1,403.0833282470703,149)"><path transform="matrix(0.017,0,0,-0.017,0,0)" d="M297 714L242 714L-37 -169L18 -169Z" stroke="rgb(0,0,0)" stroke-opacity="1" stroke-width="8" fill="rgb(0,0,0)" fill-opacity="1"></path></g></g><g><g transform="matrix(1,0,0,1,411.34999084472656,149)"><path transform="matrix(0.017,0,0,-0.017,0,0)" d="M91 666C135 691 168 702 202 704C303 709 366 618 375 455C377 426 375 403 373 353C306 400 270 414 219 411C170 408 130 388 96 347C54 299 33 235 36 173C42 65 129 -16 233 -11C302 -7 359 29 398 92C440 162 466 297 460 413C450 613 327 758 175 750C136 748 102 738 48 715ZM369 318C359 206 351 163 328 111C305 57 263 21 219 19C165 16 128 67 124 152C118 266 180 364 261 368C299 371 331 354 369 318ZM862 365C865 403 870 435 878 476C867 481 863 482 858 482C827 482 796 458 760 407C721 351 682 291 666 256L698 408C702 425 704 438 704 450C704 470 696 482 681 482C660 482 622 461 548 408L520 388L527 368L559 389C587 407 598 412 607 412C617 412 624 403 624 390C624 332 581 126 541 -2L551 -9C566 -4 582 -1 605 4L618 6L644 126C662 209 685 262 729 319C763 363 790 384 812 384C827 384 837 379 848 365Z" stroke="rgb(0,0,0)" stroke-opacity="1" stroke-width="8" fill="rgb(0,0,0)" fill-opacity="1"></path></g></g><g><g transform="matrix(1,0,0,1,426.34999084472656,149)"><path transform="matrix(0.017,0,0,-0.017,0,0)" d="M179.50274 -172L179.50274 713L120.50274 713L120.50274 -172Z" stroke="rgb(0,0,0)" stroke-opacity="1" stroke-width="8" fill="rgb(0,0,0)" fill-opacity="1"></path></g></g><g><g><g><g><g transform="matrix(1,0,0,1,431.96669006347656,151.75000610351563)"><path transform="matrix(0.0119,0,0,-0.0119,0,0)" d="M368 365C371 403 376 435 384 476C373 481 369 482 364 482C333 482 302 458 266 407C227 351 188 291 172 256L204 408C208 425 210 438 210 450C210 470 202 482 187 482C166 482 128 461 54 408L26 388L33 368L65 389C93 407 104 412 113 412C123 412 130 403 130 390C130 332 87 126 47 -2L57 -9C72 -4 88 -1 111 4L124 6L150 126C168 209 191 262 235 319C269 363 296 384 318 384C333 384 343 379 354 365ZM992 347L992 406L453 406L453 347ZM992 134L992 193L453 193L453 134ZM1291 722L1279 733C1227 707 1191 698 1119 691L1115 670L1163 670C1187 670 1197 663 1197 646C1197 639 1196 628 1195 622L1094 71C1093 68 1093 64 1093 61C1093 22 1141 -11 1196 -11C1233 -11 1284 8 1327 39C1423 107 1489 244 1489 376C1489 414 1480 453 1468 468C1461 477 1448 482 1433 482C1409 482 1379 474 1351 460C1300 433 1267 403 1205 324ZM1378 424C1404 424 1417 401 1417 352C1417 288 1396 202 1366 137C1333 68 1293 36 1239 36C1193 36 1168 59 1168 101C1168 135 1183 276 1264 361C1297 395 1349 424 1378 424Z" stroke="rgb(0,0,0)" stroke-opacity="1" stroke-width="8" fill="rgb(0,0,0)" fill-opacity="1"></path></g></g></g></g></g><g><g transform="matrix(1,0,0,1,456.1499786376953,149)"><path transform="matrix(0.017,0,0,-0.017,0,0)" d="M604 347L604 406L65 406L65 347ZM604 134L604 193L65 193L65 134Z" stroke="rgb(0,0,0)" stroke-opacity="1" stroke-width="8" fill="rgb(0,0,0)" fill-opacity="1"></path></g></g><g><g transform="matrix(1,0,0,1,472.59999084472656,149)"><path transform="matrix(0.017,0,0,-0.017,0,0)" d="M263 689C108 689 29 566 29 324C29 207 50 106 85 57C120 8 176 -20 238 -20C389 -20 465 110 465 366C465 585 400 689 263 689ZM245 654C342 654 381 556 381 316C381 103 343 15 251 15C154 15 113 116 113 360C113 571 150 654 245 654Z" stroke="rgb(0,0,0)" stroke-opacity="1" stroke-width="8" fill="rgb(0,0,0)" fill-opacity="1"></path></g></g></g></g><g><g><g><g transform="matrix(1,0,0,1,121.84999084472656,64.35000610351562)"><path transform="matrix(0.017,0,0,-0.017,0,0)" d="M271 204L242 77C238 60 236 42 236 26C236 4 245 -9 260 -9C283 -9 324 17 406 85L399 106C375 86 346 59 324 59C315 59 309 68 309 82C309 87 309 90 310 93L402 472L392 481L359 463C318 478 301 482 274 482C246 482 226 477 199 464C137 433 104 403 79 354C35 265 4 145 4 67C4 23 19 -11 38 -11C75 -11 155 41 271 204ZM319 414C297 305 278 253 244 201C187 117 126 59 94 59C82 59 76 72 76 99C76 163 104 280 139 360C163 415 186 433 234 433C257 433 275 429 319 414Z" stroke="rgb(0,0,0)" stroke-opacity="1" stroke-width="8" fill="rgb(0,0,0)" fill-opacity="1"></path></g></g></g></g><g><g><g><g transform="matrix(1,0,0,1,152.84999084472656,108.35000610351562)"><path transform="matrix(0.017,0,0,-0.017,0,0)" d="M235 722L223 733C171 707 135 698 63 691L59 670L107 670C131 670 141 663 141 646C141 639 140 628 139 622L38 71C37 68 37 64 37 61C37 22 85 -11 140 -11C177 -11 228 8 271 39C367 107 433 244 433 376C433 414 424 453 412 468C405 477 392 482 377 482C353 482 323 474 295 460C244 433 211 403 149 324ZM322 424C348 424 361 401 361 352C361 288 340 202 310 137C277 68 237 36 183 36C137 36 112 59 112 101C112 135 127 276 208 361C241 395 293 424 322 424Z" stroke="rgb(0,0,0)" stroke-opacity="1" stroke-width="8" fill="rgb(0,0,0)" fill-opacity="1"></path></g></g></g></g></svg>
</svg>
